<?xml version="1.0" encoding="UTF-8" standalone="no"?>
<!-- Created with Inkscape (http://www.inkscape.org/) -->

<svg
   xmlns:dc="http://purl.org/dc/elements/1.1/"
   xmlns:cc="http://creativecommons.org/ns#"
   xmlns:rdf="http://www.w3.org/1999/02/22-rdf-syntax-ns#"
   xmlns:svg="http://www.w3.org/2000/svg"
   xmlns="http://www.w3.org/2000/svg"
   xmlns:sodipodi="http://sodipodi.sourceforge.net/DTD/sodipodi-0.dtd"
   xmlns:inkscape="http://www.inkscape.org/namespaces/inkscape"
   width="120.18444"
   height="379.99997"
   viewBox="0 0 31.7988 100.54166"
   version="1.1"
   id="svg85367"
   inkscape:version="0.92.4 5da689c313, 2019-01-14"
   sodipodi:docname="188vert.svg">
  <defs
     id="defs85361" />
  <sodipodi:namedview
     id="base"
     pagecolor="#ffffff"
     bordercolor="#666666"
     borderopacity="1.0"
     inkscape:pageopacity="0.0"
     inkscape:pageshadow="2"
     inkscape:zoom="22.4"
     inkscape:cx="49.616228"
     inkscape:cy="24.429183"
     inkscape:document-units="mm"
     inkscape:current-layer="layer1"
     showgrid="false"
     fit-margin-top="0"
     fit-margin-left="0"
     fit-margin-right="0"
     fit-margin-bottom="0"
     units="px"
     inkscape:window-width="1366"
     inkscape:window-height="768"
     inkscape:window-x="0"
     inkscape:window-y="0"
     inkscape:window-maximized="0"
     inkscape:snap-bbox="true"
     inkscape:bbox-nodes="true"
     inkscape:object-nodes="true"
     inkscape:snap-page="true"
     inkscape:object-paths="false"
     inkscape:snap-bbox-edge-midpoints="false"
     inkscape:bbox-paths="false"
     inkscape:snap-bbox-midpoints="false"
     inkscape:snap-intersection-paths="false"
     inkscape:snap-smooth-nodes="false"
     inkscape:snap-midpoints="false"
     inkscape:snap-object-midpoints="false"
     inkscape:snap-center="false"
     inkscape:snap-others="false"
     showguides="false" />
  <metadata
     id="metadata85364">
    <rdf:RDF>
      <cc:Work
         rdf:about="">
        <dc:format>image/svg+xml</dc:format>
        <dc:type
           rdf:resource="http://purl.org/dc/dcmitype/StillImage" />
        <dc:title />
      </cc:Work>
    </rdf:RDF>
  </metadata>
  <g
     inkscape:label="Layer 1"
     inkscape:groupmode="layer"
     id="layer1"
     transform="translate(-116.50683,-85.327033)">
    <path
       inkscape:connector-curvature="0"
       id="path65292"
       d="m 116.58014,85.400352 h 31.65218 V 185.79646 h -31.65218 z m 0,0"
       style="fill:#9ed3a6;fill-opacity:1;fill-rule:nonzero;stroke:none;stroke-width:0.27602381;opacity:0.777" />
    <path
       inkscape:connector-curvature="0"
       id="path69634"
       d="m 128.07179,97.452673 c 0,-0.07979 0.0647,-0.144482 0.14124,-0.144482 h 0.77524 c 0.0776,0 0.14127,0.06469 0.14127,0.144482 0,0.07655 -0.0636,0.141247 -0.14127,0.141247 h -0.77524 c -0.0765,0 -0.14124,-0.06469 -0.14124,-0.141247"
       style="fill:#000000;fill-opacity:1;fill-rule:nonzero;stroke:none;stroke-width:0.27602381" />
    <path
       inkscape:connector-curvature="0"
       id="path69636"
       d="m 135.93954,97.474236 h -0.35256 c -0.0754,0 -0.13693,-0.0593 -0.13693,-0.135853 0,-0.07547 0.0615,-0.136935 0.13693,-0.136935 h 0.35256 v -0.345031 c 0,-0.07979 0.0615,-0.142323 0.14127,-0.142323 0.0776,0 0.14124,0.06253 0.14124,0.142323 v 0.345031 h 0.35365 c 0.0744,0 0.13693,0.06146 0.13693,0.136935 0,0.07655 -0.0625,0.135853 -0.13693,0.135853 h -0.35365 v 0.34611 c 0,0.07871 -0.0636,0.141246 -0.14124,0.141246 -0.0798,0 -0.14127,-0.06254 -0.14127,-0.141246 z m 0,0"
       style="fill:#000000;fill-opacity:1;fill-rule:nonzero;stroke:none;stroke-width:0.27602381" />
    <path
       inkscape:connector-curvature="0"
       id="path69638"
       d="m 122.24835,101.87444 h 20.32979"
       style="fill:none;stroke:#000000;stroke-width:0.18383186;stroke-linecap:round;stroke-linejoin:round;stroke-miterlimit:10;stroke-opacity:1" />
    <path
       inkscape:connector-curvature="0"
       id="path69666"
       d="m 146.36593,108.90443 c 0,-0.35582 -0.29112,-0.64693 -0.64695,-0.64693 h -6.28169 c -0.35582,0 -0.64692,0.29111 -0.64692,0.64693 v 6.28169 c 0,0.35582 0.2911,0.64693 0.64692,0.64693 h 6.28169 c 0.35583,0 0.64695,-0.29111 0.64695,-0.64693 z m 0,0"
       style="fill:#000000;fill-opacity:1;fill-rule:nonzero;stroke:none;stroke-width:0.27602381" />
    <path
       inkscape:connector-curvature="0"
       id="path69668"
       d="m 122.24835,112.04528 h 20.32979"
       style="fill:none;stroke:#000000;stroke-width:0.18383186;stroke-linecap:round;stroke-linejoin:round;stroke-miterlimit:10;stroke-opacity:1" />
    <path
       inkscape:connector-curvature="0"
       id="path69670"
       d="m 146.36593,119.07634 c 0,-0.35581 -0.29112,-0.64694 -0.64695,-0.64694 h -6.28169 c -0.35582,0 -0.64692,0.29113 -0.64692,0.64694 v 6.28169 c 0,0.35581 0.2911,0.64693 0.64692,0.64693 h 6.28169 c 0.35583,0 0.64695,-0.29112 0.64695,-0.64693 z m 0,0"
       style="fill:#000000;fill-opacity:1;fill-rule:nonzero;stroke:none;stroke-width:0.27602381" />
    <path
       inkscape:connector-curvature="0"
       id="path69672"
       d="m 122.24835,122.21718 h 20.32979"
       style="fill:none;stroke:#000000;stroke-width:0.18383186;stroke-linecap:round;stroke-linejoin:round;stroke-miterlimit:10;stroke-opacity:1" />
    <path
       inkscape:connector-curvature="0"
       id="path69674"
       d="m 146.36593,129.24716 c 0,-0.35581 -0.29112,-0.64693 -0.64695,-0.64693 h -6.28169 c -0.35582,0 -0.64692,0.29112 -0.64692,0.64693 v 6.28278 c 0,0.35581 0.2911,0.64693 0.64692,0.64693 h 6.28169 c 0.35583,0 0.64695,-0.29112 0.64695,-0.64693 z m 0,0"
       style="fill:#000000;fill-opacity:1;fill-rule:nonzero;stroke:none;stroke-width:0.27602381" />
    <path
       inkscape:connector-curvature="0"
       id="path69676"
       d="m 122.24835,132.38909 h 20.32979"
       style="fill:none;stroke:#000000;stroke-width:0.18383186;stroke-linecap:round;stroke-linejoin:round;stroke-miterlimit:10;stroke-opacity:1" />
    <path
       inkscape:connector-curvature="0"
       id="path69678"
       d="m 146.36593,139.41908 c 0,-0.35582 -0.29112,-0.64694 -0.64695,-0.64694 h -6.28169 c -0.35582,0 -0.64692,0.29112 -0.64692,0.64694 v 6.28277 c 0,0.35581 0.2911,0.64585 0.64692,0.64585 h 6.28169 c 0.35583,0 0.64695,-0.29004 0.64695,-0.64585 z m 0,0"
       style="fill:#000000;fill-opacity:1;fill-rule:nonzero;stroke:none;stroke-width:0.27602381" />
    <path
       inkscape:connector-curvature="0"
       id="path69680"
       d="m 122.24835,142.55992 h 20.32979"
       style="fill:none;stroke:#000000;stroke-width:0.18383186;stroke-linecap:round;stroke-linejoin:round;stroke-miterlimit:10;stroke-opacity:1" />
    <path
       inkscape:connector-curvature="0"
       id="path69682"
       d="m 146.36593,149.59098 c 0,-0.35581 -0.29112,-0.64693 -0.64695,-0.64693 h -6.28169 c -0.35582,0 -0.64692,0.29112 -0.64692,0.64693 v 6.2817 c 0,0.35581 0.2911,0.64694 0.64692,0.64694 h 6.28169 c 0.35583,0 0.64695,-0.29113 0.64695,-0.64694 z m 0,0"
       style="fill:#000000;fill-opacity:1;fill-rule:nonzero;stroke:none;stroke-width:0.27602381" />
    <path
       inkscape:connector-curvature="0"
       id="path69684"
       d="m 122.24835,152.73183 h 20.32979"
       style="fill:none;stroke:#000000;stroke-width:0.18383186;stroke-linecap:round;stroke-linejoin:round;stroke-miterlimit:10;stroke-opacity:1" />
    <path
       inkscape:connector-curvature="0"
       id="path69686"
       d="m 146.36593,159.76181 c 0,-0.35581 -0.29112,-0.64585 -0.64695,-0.64585 h -6.28169 c -0.35582,0 -0.64692,0.29004 -0.64692,0.64585 v 6.28278 c 0,0.35581 0.2911,0.64692 0.64692,0.64692 h 6.28169 c 0.35583,0 0.64695,-0.29111 0.64695,-0.64692 z m 0,0"
       style="fill:#000000;fill-opacity:1;fill-rule:nonzero;stroke:none;stroke-width:0.27602381" />
    <path
       inkscape:connector-curvature="0"
       id="path69688"
       d="m 122.24835,162.90374 h 20.32979"
       style="fill:none;stroke:#000000;stroke-width:0.18383186;stroke-linecap:round;stroke-linejoin:round;stroke-miterlimit:10;stroke-opacity:1" />
    <path
       inkscape:connector-curvature="0"
       id="path69690"
       d="m 146.36593,169.93371 c 0,-0.35581 -0.29112,-0.64692 -0.64695,-0.64692 h -6.28169 c -0.35582,0 -0.64692,0.29111 -0.64692,0.64692 v 6.28278 c 0,0.35581 0.2911,0.64586 0.64692,0.64586 h 6.28169 c 0.35583,0 0.64695,-0.29005 0.64695,-0.64586 z m 0,0"
       style="fill:#000000;fill-opacity:1;fill-rule:nonzero;stroke:none;stroke-width:0.27602381" />
    <path
       inkscape:connector-curvature="0"
       id="path69692"
       d="m 122.24835,173.07457 h 20.32979"
       style="fill:none;stroke:#000000;stroke-width:0.18383186;stroke-linecap:round;stroke-linejoin:round;stroke-miterlimit:10;stroke-opacity:1" />
    <path
       inkscape:connector-curvature="0"
       id="path69694"
       d="m 128.07179,107.6235 c 0,-0.0787 0.0647,-0.1434 0.14124,-0.1434 h 0.77524 c 0.0776,0 0.14127,0.0647 0.14127,0.1434 0,0.0776 -0.0636,0.14233 -0.14127,0.14233 h -0.77524 c -0.0765,0 -0.14124,-0.0647 -0.14124,-0.14233"
       style="fill:#000000;fill-opacity:1;fill-rule:nonzero;stroke:none;stroke-width:0.27602381" />
    <path
       inkscape:connector-curvature="0"
       id="path69696"
       d="m 135.93954,107.64615 h -0.35256 c -0.0754,0 -0.13693,-0.0593 -0.13693,-0.13694 0,-0.0744 0.0615,-0.13585 0.13693,-0.13585 h 0.35256 v -0.34611 c 0,-0.0787 0.0615,-0.14125 0.14127,-0.14125 0.0776,0 0.14124,0.0625 0.14124,0.14125 v 0.34611 h 0.35365 c 0.0744,0 0.13693,0.0615 0.13693,0.13585 0,0.0776 -0.0625,0.13694 -0.13693,0.13694 h -0.35365 v 0.34503 c 0,0.0798 -0.0636,0.14232 -0.14124,0.14232 -0.0798,0 -0.14127,-0.0625 -0.14127,-0.14232 z m 0,0"
       style="fill:#000000;fill-opacity:1;fill-rule:nonzero;stroke:none;stroke-width:0.27602381" />
    <path
       inkscape:connector-curvature="0"
       id="path69704"
       d="m 128.07179,117.79541 c 0,-0.0798 0.0647,-0.14448 0.14124,-0.14448 h 0.77524 c 0.0776,0 0.14127,0.0647 0.14127,0.14448 0,0.0765 -0.0636,0.14233 -0.14127,0.14233 h -0.77524 c -0.0765,0 -0.14124,-0.0658 -0.14124,-0.14233"
       style="fill:#000000;fill-opacity:1;fill-rule:nonzero;stroke:none;stroke-width:0.27602381" />
    <path
       inkscape:connector-curvature="0"
       id="path69706"
       d="m 135.93954,117.81805 h -0.35256 c -0.0754,0 -0.13693,-0.0604 -0.13693,-0.13693 0,-0.0744 0.0615,-0.13693 0.13693,-0.13693 h 0.35256 v -0.34503 c 0,-0.0798 0.0615,-0.14233 0.14127,-0.14233 0.0776,0 0.14124,0.0625 0.14124,0.14233 v 0.34503 h 0.35365 c 0.0744,0 0.13693,0.0625 0.13693,0.13693 0,0.0765 -0.0625,0.13693 -0.13693,0.13693 h -0.35365 v 0.34503 c 0,0.0798 -0.0636,0.14233 -0.14124,0.14233 -0.0798,0 -0.14127,-0.0625 -0.14127,-0.14233 z m 0,0"
       style="fill:#000000;fill-opacity:1;fill-rule:nonzero;stroke:none;stroke-width:0.27602381" />
    <path
       inkscape:connector-curvature="0"
       id="path69708"
       d="m 128.07179,127.96732 c 0,-0.0798 0.0647,-0.14449 0.14124,-0.14449 h 0.77524 c 0.0776,0 0.14127,0.0647 0.14127,0.14449 0,0.0765 -0.0636,0.14124 -0.14127,0.14124 h -0.77524 c -0.0765,0 -0.14124,-0.0647 -0.14124,-0.14124"
       style="fill:#000000;fill-opacity:1;fill-rule:nonzero;stroke:none;stroke-width:0.27602381" />
    <path
       inkscape:connector-curvature="0"
       id="path69710"
       d="m 135.93954,127.98888 h -0.35256 c -0.0754,0 -0.13693,-0.0593 -0.13693,-0.13585 0,-0.0755 0.0615,-0.13693 0.13693,-0.13693 h 0.35256 v -0.34503 c 0,-0.0798 0.0615,-0.14233 0.14127,-0.14233 0.0776,0 0.14124,0.0625 0.14124,0.14233 v 0.34503 h 0.35365 c 0.0744,0 0.13693,0.0614 0.13693,0.13693 0,0.0765 -0.0625,0.13585 -0.13693,0.13585 h -0.35365 v 0.34611 c 0,0.0787 -0.0636,0.14125 -0.14124,0.14125 -0.0798,0 -0.14127,-0.0625 -0.14127,-0.14125 z m 0,0"
       style="fill:#000000;fill-opacity:1;fill-rule:nonzero;stroke:none;stroke-width:0.27602381" />
    <path
       inkscape:connector-curvature="0"
       id="path69712"
       d="m 128.07179,138.13815 c 0,-0.0787 0.0647,-0.14341 0.14124,-0.14341 h 0.77524 c 0.0776,0 0.14127,0.0647 0.14127,0.14341 0,0.0776 -0.0636,0.14233 -0.14127,0.14233 h -0.77524 c -0.0765,0 -0.14124,-0.0647 -0.14124,-0.14233"
       style="fill:#000000;fill-opacity:1;fill-rule:nonzero;stroke:none;stroke-width:0.27602381" />
    <path
       inkscape:connector-curvature="0"
       id="path69714"
       d="m 135.93954,138.1608 h -0.35256 c -0.0754,0 -0.13693,-0.0593 -0.13693,-0.13694 0,-0.0744 0.0615,-0.13586 0.13693,-0.13586 h 0.35256 v -0.34611 c 0,-0.0787 0.0615,-0.14124 0.14127,-0.14124 0.0776,0 0.14124,0.0625 0.14124,0.14124 v 0.34611 h 0.35365 c 0.0744,0 0.13693,0.0614 0.13693,0.13586 0,0.0776 -0.0625,0.13694 -0.13693,0.13694 h -0.35365 v 0.34502 c 0,0.0798 -0.0636,0.14233 -0.14124,0.14233 -0.0798,0 -0.14127,-0.0625 -0.14127,-0.14233 z m 0,0"
       style="fill:#000000;fill-opacity:1;fill-rule:nonzero;stroke:none;stroke-width:0.27602381" />
    <path
       inkscape:connector-curvature="0"
       id="path69716"
       d="m 128.07179,148.31006 c 0,-0.0798 0.0647,-0.14448 0.14124,-0.14448 h 0.77524 c 0.0776,0 0.14127,0.0647 0.14127,0.14448 0,0.0776 -0.0636,0.14232 -0.14127,0.14232 h -0.77524 c -0.0765,0 -0.14124,-0.0647 -0.14124,-0.14232"
       style="fill:#000000;fill-opacity:1;fill-rule:nonzero;stroke:none;stroke-width:0.27602381" />
    <path
       inkscape:connector-curvature="0"
       id="path69718"
       d="m 135.93954,148.3327 h -0.35256 c -0.0754,0 -0.13693,-0.0593 -0.13693,-0.13693 0,-0.0744 0.0615,-0.13694 0.13693,-0.13694 h 0.35256 v -0.34503 c 0,-0.0798 0.0615,-0.14124 0.14127,-0.14124 0.0776,0 0.14124,0.0615 0.14124,0.14124 v 0.34503 h 0.35365 c 0.0744,0 0.13693,0.0625 0.13693,0.13694 0,0.0776 -0.0625,0.13693 -0.13693,0.13693 h -0.35365 v 0.34503 c 0,0.0798 -0.0636,0.14232 -0.14124,0.14232 -0.0798,0 -0.14127,-0.0625 -0.14127,-0.14232 z m 0,0"
       style="fill:#000000;fill-opacity:1;fill-rule:nonzero;stroke:none;stroke-width:0.27602381" />
    <path
       inkscape:connector-curvature="0"
       id="path69720"
       d="m 128.07179,158.48196 c 0,-0.0798 0.0647,-0.14447 0.14124,-0.14447 h 0.77524 c 0.0776,0 0.14127,0.0647 0.14127,0.14447 0,0.0765 -0.0636,0.14126 -0.14127,0.14126 h -0.77524 c -0.0765,0 -0.14124,-0.0647 -0.14124,-0.14126"
       style="fill:#000000;fill-opacity:1;fill-rule:nonzero;stroke:none;stroke-width:0.27602381" />
    <path
       inkscape:connector-curvature="0"
       id="path69722"
       d="m 135.93954,158.50461 h -0.35256 c -0.0754,0 -0.13693,-0.0604 -0.13693,-0.13693 0,-0.0755 0.0615,-0.13694 0.13693,-0.13694 h 0.35256 v -0.34503 c 0,-0.0798 0.0615,-0.14232 0.14127,-0.14232 0.0776,0 0.14124,0.0625 0.14124,0.14232 v 0.34503 h 0.35365 c 0.0744,0 0.13693,0.0615 0.13693,0.13694 0,0.0765 -0.0625,0.13693 -0.13693,0.13693 h -0.35365 v 0.34503 c 0,0.0798 -0.0636,0.14125 -0.14124,0.14125 -0.0798,0 -0.14127,-0.0614 -0.14127,-0.14125 z m 0,0"
       style="fill:#000000;fill-opacity:1;fill-rule:nonzero;stroke:none;stroke-width:0.27602381" />
    <path
       inkscape:connector-curvature="0"
       id="path69724"
       d="m 128.07179,168.65387 c 0,-0.0798 0.0647,-0.14447 0.14124,-0.14447 h 0.77524 c 0.0776,0 0.14127,0.0647 0.14127,0.14447 0,0.0765 -0.0636,0.14125 -0.14127,0.14125 h -0.77524 c -0.0765,0 -0.14124,-0.0647 -0.14124,-0.14125"
       style="fill:#000000;fill-opacity:1;fill-rule:nonzero;stroke:none;stroke-width:0.27602381" />
    <path
       inkscape:connector-curvature="0"
       id="path69726"
       d="m 135.93954,168.67544 h -0.35256 c -0.0754,0 -0.13693,-0.0593 -0.13693,-0.13586 0,-0.0755 0.0615,-0.13693 0.13693,-0.13693 h 0.35256 v -0.34503 c 0,-0.0798 0.0615,-0.14232 0.14127,-0.14232 0.0776,0 0.14124,0.0625 0.14124,0.14232 v 0.34503 h 0.35365 c 0.0744,0 0.13693,0.0615 0.13693,0.13693 0,0.0765 -0.0625,0.13586 -0.13693,0.13586 h -0.35365 v 0.3461 c 0,0.0787 -0.0636,0.14125 -0.14124,0.14125 -0.0798,0 -0.14127,-0.0625 -0.14127,-0.14125 z m 0,0"
       style="fill:#000000;fill-opacity:1;fill-rule:nonzero;stroke:none;stroke-width:0.27602381" />
    <path
       inkscape:connector-curvature="0"
       id="path69666-2"
       d="m 118.44653,108.90444 c 0,-0.35582 0.29112,-0.64693 0.64695,-0.64693 h 6.28169 c 0.35582,0 0.64692,0.29111 0.64692,0.64693 v 6.28169 c 0,0.35582 -0.2911,0.64693 -0.64692,0.64693 h -6.28169 c -0.35583,0 -0.64695,-0.29111 -0.64695,-0.64693 z m 0,0"
       style="fill:#000000;fill-opacity:1;fill-rule:nonzero;stroke:none;stroke-width:0.27602381" />
    <path
       inkscape:connector-curvature="0"
       id="path69670-7"
       d="m 118.44653,119.07635 c 0,-0.35581 0.29112,-0.64694 0.64695,-0.64694 h 6.28169 c 0.35582,0 0.64692,0.29113 0.64692,0.64694 v 6.28169 c 0,0.35581 -0.2911,0.64693 -0.64692,0.64693 h -6.28169 c -0.35583,0 -0.64695,-0.29112 -0.64695,-0.64693 z m 0,0"
       style="fill:#000000;fill-opacity:1;fill-rule:nonzero;stroke:none;stroke-width:0.27602381" />
    <path
       inkscape:connector-curvature="0"
       id="path69674-0"
       d="m 118.44653,129.24717 c 0,-0.35581 0.29112,-0.64693 0.64695,-0.64693 h 6.28169 c 0.35582,0 0.64692,0.29112 0.64692,0.64693 v 6.28278 c 0,0.35581 -0.2911,0.64693 -0.64692,0.64693 h -6.28169 c -0.35583,0 -0.64695,-0.29112 -0.64695,-0.64693 z m 0,0"
       style="fill:#000000;fill-opacity:1;fill-rule:nonzero;stroke:none;stroke-width:0.27602381" />
    <path
       inkscape:connector-curvature="0"
       id="path69678-9"
       d="m 118.44653,139.41909 c 0,-0.35582 0.29112,-0.64694 0.64695,-0.64694 h 6.28169 c 0.35582,0 0.64692,0.29112 0.64692,0.64694 v 6.28277 c 0,0.35581 -0.2911,0.64585 -0.64692,0.64585 h -6.28169 c -0.35583,0 -0.64695,-0.29004 -0.64695,-0.64585 z m 0,0"
       style="fill:#000000;fill-opacity:1;fill-rule:nonzero;stroke:none;stroke-width:0.27602381" />
    <path
       inkscape:connector-curvature="0"
       id="path69682-3"
       d="m 118.44653,149.59099 c 0,-0.35581 0.29112,-0.64693 0.64695,-0.64693 h 6.28169 c 0.35582,0 0.64692,0.29112 0.64692,0.64693 v 6.2817 c 0,0.35581 -0.2911,0.64694 -0.64692,0.64694 h -6.28169 c -0.35583,0 -0.64695,-0.29113 -0.64695,-0.64694 z m 0,0"
       style="fill:#000000;fill-opacity:1;fill-rule:nonzero;stroke:none;stroke-width:0.27602381" />
    <path
       inkscape:connector-curvature="0"
       id="path69686-6"
       d="m 118.44653,159.76182 c 0,-0.35581 0.29112,-0.64585 0.64695,-0.64585 h 6.28169 c 0.35582,0 0.64692,0.29004 0.64692,0.64585 v 6.28278 c 0,0.35581 -0.2911,0.64692 -0.64692,0.64692 h -6.28169 c -0.35583,0 -0.64695,-0.29111 -0.64695,-0.64692 z m 0,0"
       style="fill:#000000;fill-opacity:1;fill-rule:nonzero;stroke:none;stroke-width:0.27602381" />
    <path
       inkscape:connector-curvature="0"
       id="path69690-0"
       d="m 118.44653,169.93372 c 0,-0.35581 0.29112,-0.64692 0.64695,-0.64692 h 6.28169 c 0.35582,0 0.64692,0.29111 0.64692,0.64692 v 6.28278 c 0,0.35581 -0.2911,0.64586 -0.64692,0.64586 h -6.28169 c -0.35583,0 -0.64695,-0.29005 -0.64695,-0.64586 z m 0,0"
       style="fill:#000000;fill-opacity:1;fill-rule:nonzero;stroke:none;stroke-width:0.27602381" />
    <path
       inkscape:connector-curvature="0"
       id="path69666-3"
       d="m 146.36593,98.733595 c 0,-0.35582 -0.29112,-0.64693 -0.64695,-0.64693 h -6.28169 c -0.35582,0 -0.64692,0.29111 -0.64692,0.64693 v 6.281695 c 0,0.35582 0.2911,0.64693 0.64692,0.64693 h 6.28169 c 0.35583,0 0.64695,-0.29111 0.64695,-0.64693 z m 0,0"
       style="fill:#000000;fill-opacity:1;fill-rule:nonzero;stroke:none;stroke-width:0.27602381" />
    <path
       inkscape:connector-curvature="0"
       id="path69666-2-6"
       d="m 118.44653,98.733595 c 0,-0.35582 0.29112,-0.64693 0.64695,-0.64693 h 6.28169 c 0.35582,0 0.64692,0.29111 0.64692,0.64693 v 6.281695 c 0,0.35582 -0.2911,0.64693 -0.64692,0.64693 h -6.28169 c -0.35583,0 -0.64695,-0.29111 -0.64695,-0.64693 z m 0,0"
       style="fill:#000000;fill-opacity:1;fill-rule:nonzero;stroke:none;stroke-width:0.27602381" />
    <g
       aria-label="188Vert"
       style="font-style:normal;font-variant:normal;font-weight:normal;font-stretch:normal;font-size:10.58333302px;line-height:1.25;font-family:'xos4 Terminus';-inkscape-font-specification:'xos4 Terminus';letter-spacing:0px;word-spacing:0px;fill:#000000;fill-opacity:1;stroke:none;stroke-width:0.26458332"
       id="text1733"
       transform="translate(-0.752985,-0.04606841)">
      <path
         d="m 128.32665,180.32867 h 0.38946 v 0.24836 h -1.17686 v -0.24836 h 0.47413 v -1.37442 l -0.42898,0.26247 -0.13547,-0.22014 0.59832,-0.36689 h 0.2794 z"
         style="font-style:normal;font-variant:normal;font-weight:500;font-stretch:normal;font-size:2.82222223px;font-family:'Fira Code';-inkscape-font-specification:'Fira Code, Medium';font-variant-ligatures:normal;font-variant-caps:normal;font-variant-numeric:normal;font-feature-settings:normal;text-align:center;writing-mode:lr-tb;text-anchor:middle;stroke-width:0.26458332"
         id="path1735"
         inkscape:connector-curvature="0" />
      <path
         d="m 130.36601,179.09254 q 0,0.13829 -0.079,0.23989 -0.079,0.1016 -0.24271,0.19473 0.19473,0.0875 0.29633,0.22013 0.10442,0.13265 0.10442,0.3048 0,0.15805 -0.0847,0.28787 -0.0819,0.127 -0.23989,0.20038 -0.15523,0.0734 -0.36689,0.0734 -0.21449,0 -0.36971,-0.0734 -0.1524,-0.0734 -0.23143,-0.19756 -0.079,-0.127 -0.079,-0.28222 0,-0.33302 0.37818,-0.50236 -0.15804,-0.0818 -0.2286,-0.18344 -0.0706,-0.10442 -0.0706,-0.26529 0,-0.16651 0.0847,-0.28222 0.0875,-0.11853 0.22578,-0.1778 0.14111,-0.0593 0.29633,-0.0593 0.16651,0 0.30198,0.0593 0.13829,0.0564 0.22013,0.16933 0.0847,0.11289 0.0847,0.27376 z m -0.90876,0.0197 q 0,0.0931 0.0423,0.1524 0.0423,0.0593 0.11853,0.0988 0.0762,0.0367 0.21167,0.0847 0.12418,-0.0762 0.1778,-0.1524 0.0536,-0.0762 0.0536,-0.18627 0,-0.13264 -0.079,-0.20884 -0.079,-0.079 -0.22296,-0.079 -0.14393,0 -0.22295,0.0762 -0.079,0.0762 -0.079,0.21449 z m 0.66323,0.94263 q 0,-0.11289 -0.0536,-0.18345 -0.0536,-0.0734 -0.14675,-0.11853 -0.0903,-0.0452 -0.26529,-0.10725 -0.25682,0.13265 -0.25682,0.40358 0,0.1524 0.0903,0.23989 0.0931,0.0847 0.26811,0.0847 0.17498,0 0.26811,-0.0875 0.096,-0.0903 0.096,-0.23142 z"
         style="font-style:normal;font-variant:normal;font-weight:500;font-stretch:normal;font-size:2.82222223px;font-family:'Fira Code';-inkscape-font-specification:'Fira Code, Medium';font-variant-ligatures:normal;font-variant-caps:normal;font-variant-numeric:normal;font-feature-settings:normal;text-align:center;writing-mode:lr-tb;text-anchor:middle;stroke-width:0.26458332"
         id="path1737"
         inkscape:connector-curvature="0" />
      <path
         d="m 132.05824,179.09254 q 0,0.13829 -0.079,0.23989 -0.079,0.1016 -0.24271,0.19473 0.19473,0.0875 0.29633,0.22013 0.10442,0.13265 0.10442,0.3048 0,0.15805 -0.0847,0.28787 -0.0819,0.127 -0.23989,0.20038 -0.15522,0.0734 -0.36689,0.0734 -0.21449,0 -0.36971,-0.0734 -0.1524,-0.0734 -0.23142,-0.19756 -0.079,-0.127 -0.079,-0.28222 0,-0.33302 0.37818,-0.50236 -0.15804,-0.0818 -0.2286,-0.18344 -0.0705,-0.10442 -0.0705,-0.26529 0,-0.16651 0.0847,-0.28222 0.0875,-0.11853 0.22578,-0.1778 0.14111,-0.0593 0.29633,-0.0593 0.16651,0 0.30198,0.0593 0.13829,0.0564 0.22013,0.16933 0.0847,0.11289 0.0847,0.27376 z m -0.90875,0.0197 q 0,0.0931 0.0423,0.1524 0.0423,0.0593 0.11853,0.0988 0.0762,0.0367 0.21167,0.0847 0.12418,-0.0762 0.1778,-0.1524 0.0536,-0.0762 0.0536,-0.18627 0,-0.13264 -0.079,-0.20884 -0.079,-0.079 -0.22296,-0.079 -0.14393,0 -0.22295,0.0762 -0.079,0.0762 -0.079,0.21449 z m 0.66322,0.94263 q 0,-0.11289 -0.0536,-0.18345 -0.0536,-0.0734 -0.14676,-0.11853 -0.0903,-0.0452 -0.26529,-0.10725 -0.25682,0.13265 -0.25682,0.40358 0,0.1524 0.0903,0.23989 0.0931,0.0847 0.26811,0.0847 0.17498,0 0.26811,-0.0875 0.096,-0.0903 0.096,-0.23142 z"
         style="font-style:normal;font-variant:normal;font-weight:500;font-stretch:normal;font-size:2.82222223px;font-family:'Fira Code';-inkscape-font-specification:'Fira Code, Medium';font-variant-ligatures:normal;font-variant-caps:normal;font-variant-numeric:normal;font-feature-settings:normal;text-align:center;writing-mode:lr-tb;text-anchor:middle;stroke-width:0.26458332"
         id="path1739"
         inkscape:connector-curvature="0" />
      <path
         d="m 133.14934,180.26658 0.46566,-1.63689 h 0.33303 l -0.61807,1.94734 h -0.37253 l -0.61807,-1.94734 h 0.34996 z"
         style="font-style:normal;font-variant:normal;font-weight:500;font-stretch:normal;font-size:2.82222223px;font-family:'Fira Code';-inkscape-font-specification:'Fira Code, Medium';font-variant-ligatures:normal;font-variant-caps:normal;font-variant-numeric:normal;font-feature-settings:normal;text-align:center;writing-mode:lr-tb;text-anchor:middle;stroke-width:0.26458332"
         id="path1741"
         inkscape:connector-curvature="0" />
      <path
         d="m 134.5029,179.93356 q 0.0141,0.21731 0.12418,0.32738 0.11289,0.10724 0.28222,0.10724 0.10442,0 0.19756,-0.031 0.0959,-0.0339 0.19473,-0.0988 l 0.13547,0.19191 q -0.10442,0.0875 -0.24554,0.13547 -0.14111,0.048 -0.29633,0.048 -0.34149,0 -0.53058,-0.21167 -0.18909,-0.21449 -0.18909,-0.57009 0,-0.22296 0.0819,-0.40076 0.0818,-0.18062 0.23707,-0.28222 0.15522,-0.1016 0.36124,-0.1016 0.29633,0 0.46849,0.20038 0.17498,0.19756 0.17498,0.54469 0,0.0847 -0.008,0.14111 z m 0.3556,-0.65193 q -0.1524,0 -0.24835,0.11006 -0.096,0.11007 -0.11007,0.32738 h 0.69144 q -0.006,-0.21167 -0.0903,-0.32455 -0.0847,-0.11289 -0.24271,-0.11289 z"
         style="font-style:normal;font-variant:normal;font-weight:500;font-stretch:normal;font-size:2.82222223px;font-family:'Fira Code';-inkscape-font-specification:'Fira Code, Medium';font-variant-ligatures:normal;font-variant-caps:normal;font-variant-numeric:normal;font-feature-settings:normal;text-align:center;writing-mode:lr-tb;text-anchor:middle;stroke-width:0.26458332"
         id="path1743"
         inkscape:connector-curvature="0" />
      <path
         d="m 136.98818,179.0502 q 0.11571,0 0.22578,0.0367 l -0.0536,0.55034 h -0.22577 v -0.3048 q -0.15523,0.003 -0.27094,0.12417 -0.11571,0.12136 -0.18062,0.34149 v 0.55316 h 0.29916 v 0.22578 h -0.83538 v -0.22578 h 0.22013 v -1.03858 h -0.22013 v -0.22578 h 0.46002 l 0.0564,0.34431 q 0.0875,-0.19191 0.21166,-0.28504 0.127,-0.096 0.31327,-0.096 z"
         style="font-style:normal;font-variant:normal;font-weight:500;font-stretch:normal;font-size:2.82222223px;font-family:'Fira Code';-inkscape-font-specification:'Fira Code, Medium';font-variant-ligatures:normal;font-variant-caps:normal;font-variant-numeric:normal;font-feature-settings:normal;text-align:center;writing-mode:lr-tb;text-anchor:middle;stroke-width:0.26458332"
         id="path1745"
         inkscape:connector-curvature="0" />
      <path
         d="m 138.8695,180.498 q -0.0847,0.0536 -0.19756,0.0847 -0.11289,0.031 -0.23706,0.031 -0.254,0 -0.39229,-0.12983 -0.13829,-0.13264 -0.13829,-0.35842 v -0.80715 h -0.3302 v -0.23143 h 0.3302 v -0.33302 l 0.31609,-0.0367 v 0.36971 h 0.50517 l -0.0367,0.23143 h -0.46849 v 0.80433 q 0,0.12135 0.0621,0.18062 0.0621,0.0565 0.19755,0.0565 0.14958,0 0.27658,-0.0706 z"
         style="font-style:normal;font-variant:normal;font-weight:500;font-stretch:normal;font-size:2.82222223px;font-family:'Fira Code';-inkscape-font-specification:'Fira Code, Medium';font-variant-ligatures:normal;font-variant-caps:normal;font-variant-numeric:normal;font-feature-settings:normal;text-align:center;writing-mode:lr-tb;text-anchor:middle;stroke-width:0.26458332"
         id="path1747"
         inkscape:connector-curvature="0" />
    </g>
    <path
       sodipodi:type="star"
       style="opacity:1;fill:#000000;fill-opacity:1;stroke-width:0.22034271"
       id="path3769"
       sodipodi:sides="3"
       sodipodi:cx="132.40623"
       sodipodi:cy="92.266119"
       sodipodi:r1="3.0551453"
       sodipodi:r2="1.5275725"
       sodipodi:arg1="0.52359878"
       sodipodi:arg2="1.5707963"
       inkscape:flatsided="true"
       inkscape:rounded="0"
       inkscape:randomized="0"
       d="m 135.05207,93.793694 -5.29167,0 2.64583,-4.582718 z"
       inkscape:transform-center-y="-0.76379232" />
    <rect
       style="opacity:1;fill:#000000;fill-opacity:1;stroke-width:0.11978565"
       id="rect1761"
       width="1.0583333"
       height="0.13229166"
       x="217.27673"
       y="35.357243"
       transform="rotate(45)" />
    <rect
       style="opacity:1;fill:#000000;fill-opacity:1;stroke-width:0.11978566"
       id="rect1761-7"
       width="1.0583333"
       height="0.13229166"
       x="218.47331"
       y="34.160656"
       transform="rotate(45)" />
    <rect
       style="opacity:1;fill:#000000;fill-opacity:1;stroke-width:0.11978566"
       id="rect1761-5"
       width="1.0583333"
       height="0.13229166"
       x="217.93791"
       y="35.930576"
       transform="rotate(45)" />
    <rect
       style="opacity:1;fill:#000000;fill-opacity:1;stroke-width:0.11978566"
       id="rect1761-3"
       width="1.0583333"
       height="0.13229166"
       x="219.13451"
       y="34.733982"
       transform="rotate(45)" />
  </g>
  <g
     inkscape:groupmode="layer"
     id="layer2"
     inkscape:label="widgets"
     style="display:none">
    <rect
       style="opacity:1;vector-effect:none;fill:#00ff00;fill-opacity:0.24102568;fill-rule:evenodd;stroke:none;stroke-width:0.37540817;stroke-linecap:butt;stroke-linejoin:round;stroke-miterlimit:10;stroke-dasharray:none;stroke-dashoffset:0;stroke-opacity:0.25098039;paint-order:normal"
       id="rect86905"
       width="6.4250898"
       height="6.4251032"
       x="2.5154901"
       y="13.334324" />
    <rect
       y="12.634559"
       x="11.98764"
       height="7.8246284"
       width="7.8235297"
       id="rect1803"
       style="opacity:1;vector-effect:none;fill:#ff0000;fill-opacity:0.24102568;fill-rule:evenodd;stroke:none;stroke-width:0.45714849;stroke-linecap:butt;stroke-linejoin:round;stroke-miterlimit:10;stroke-dasharray:none;stroke-dashoffset:0;stroke-opacity:0.25098039;paint-order:normal" />
    <rect
       y="13.334324"
       x="22.858219"
       height="6.4251032"
       width="6.4261708"
       id="rect1807"
       style="opacity:1;vector-effect:none;fill:#0000ff;fill-opacity:0.24102568;fill-rule:evenodd;stroke:none;stroke-width:0.37543976;stroke-linecap:butt;stroke-linejoin:round;stroke-miterlimit:10;stroke-dasharray:none;stroke-dashoffset:0;stroke-opacity:0.25098039;paint-order:normal" />
    <rect
       style="opacity:1;vector-effect:none;fill:#ff00ff;fill-opacity:0.24102568;fill-rule:evenodd;stroke:none;stroke-width:0.04573651;stroke-linecap:butt;stroke-linejoin:round;stroke-miterlimit:10;stroke-dasharray:none;stroke-dashoffset:0;stroke-opacity:0.25098039;paint-order:normal"
       id="rect2032"
       width="0.78277081"
       height="0.78278655"
       x="28.496229"
       y="13.338635" />
    <rect
       y="23.506224"
       x="2.5154901"
       height="6.4251032"
       width="6.4250898"
       id="rect2036"
       style="opacity:1;vector-effect:none;fill:#00ff00;fill-opacity:0.24102568;fill-rule:evenodd;stroke:none;stroke-width:0.37540817;stroke-linecap:butt;stroke-linejoin:round;stroke-miterlimit:10;stroke-dasharray:none;stroke-dashoffset:0;stroke-opacity:0.25098039;paint-order:normal" />
    <rect
       style="opacity:1;vector-effect:none;fill:#00ff00;fill-opacity:0.24102568;fill-rule:evenodd;stroke:none;stroke-width:0.37540817;stroke-linecap:butt;stroke-linejoin:round;stroke-miterlimit:10;stroke-dasharray:none;stroke-dashoffset:0;stroke-opacity:0.25098039;paint-order:normal"
       id="rect2038"
       width="6.4250898"
       height="6.4251032"
       x="2.5154901"
       y="33.677055" />
    <rect
       y="43.848965"
       x="2.5154901"
       height="6.4251032"
       width="6.4250898"
       id="rect2040"
       style="opacity:1;vector-effect:none;fill:#00ff00;fill-opacity:0.24102568;fill-rule:evenodd;stroke:none;stroke-width:0.37540817;stroke-linecap:butt;stroke-linejoin:round;stroke-miterlimit:10;stroke-dasharray:none;stroke-dashoffset:0;stroke-opacity:0.25098039;paint-order:normal" />
    <rect
       style="opacity:1;vector-effect:none;fill:#00ff00;fill-opacity:0.24102568;fill-rule:evenodd;stroke:none;stroke-width:0.37540817;stroke-linecap:butt;stroke-linejoin:round;stroke-miterlimit:10;stroke-dasharray:none;stroke-dashoffset:0;stroke-opacity:0.25098039;paint-order:normal"
       id="rect2042"
       width="6.4250898"
       height="6.4251032"
       x="2.5154901"
       y="54.020874" />
    <rect
       y="64.191704"
       x="2.5154901"
       height="6.4251032"
       width="6.4250898"
       id="rect2044"
       style="opacity:1;vector-effect:none;fill:#00ff00;fill-opacity:0.24102568;fill-rule:evenodd;stroke:none;stroke-width:0.37540817;stroke-linecap:butt;stroke-linejoin:round;stroke-miterlimit:10;stroke-dasharray:none;stroke-dashoffset:0;stroke-opacity:0.25098039;paint-order:normal" />
    <rect
       style="opacity:1;vector-effect:none;fill:#00ff00;fill-opacity:0.24102568;fill-rule:evenodd;stroke:none;stroke-width:0.37540817;stroke-linecap:butt;stroke-linejoin:round;stroke-miterlimit:10;stroke-dasharray:none;stroke-dashoffset:0;stroke-opacity:0.25098039;paint-order:normal"
       id="rect2046"
       width="6.4250898"
       height="6.4251032"
       x="2.5154901"
       y="74.363617" />
    <rect
       y="84.535515"
       x="2.5154901"
       height="6.4251032"
       width="6.4250898"
       id="rect2048"
       style="opacity:1;vector-effect:none;fill:#00ff00;fill-opacity:0.24102568;fill-rule:evenodd;stroke:none;stroke-width:0.37540817;stroke-linecap:butt;stroke-linejoin:round;stroke-miterlimit:10;stroke-dasharray:none;stroke-dashoffset:0;stroke-opacity:0.25098039;paint-order:normal" />
    <rect
       style="opacity:1;vector-effect:none;fill:#ff0000;fill-opacity:0.24102568;fill-rule:evenodd;stroke:none;stroke-width:0.45714849;stroke-linecap:butt;stroke-linejoin:round;stroke-miterlimit:10;stroke-dasharray:none;stroke-dashoffset:0;stroke-opacity:0.25098039;paint-order:normal"
       id="rect2050"
       width="7.8235297"
       height="7.8246284"
       x="11.98764"
       y="22.806469" />
    <rect
       y="32.977299"
       x="11.98764"
       height="7.8246284"
       width="7.8235297"
       id="rect2052"
       style="opacity:1;vector-effect:none;fill:#ff0000;fill-opacity:0.24102568;fill-rule:evenodd;stroke:none;stroke-width:0.45714849;stroke-linecap:butt;stroke-linejoin:round;stroke-miterlimit:10;stroke-dasharray:none;stroke-dashoffset:0;stroke-opacity:0.25098039;paint-order:normal" />
    <rect
       style="opacity:1;vector-effect:none;fill:#ff0000;fill-opacity:0.24102568;fill-rule:evenodd;stroke:none;stroke-width:0.45714849;stroke-linecap:butt;stroke-linejoin:round;stroke-miterlimit:10;stroke-dasharray:none;stroke-dashoffset:0;stroke-opacity:0.25098039;paint-order:normal"
       id="rect2054"
       width="7.8235297"
       height="7.8246284"
       x="11.98764"
       y="43.149208" />
    <rect
       y="53.32111"
       x="11.98764"
       height="7.8246284"
       width="7.8235297"
       id="rect2056"
       style="opacity:1;vector-effect:none;fill:#ff0000;fill-opacity:0.24102568;fill-rule:evenodd;stroke:none;stroke-width:0.45714849;stroke-linecap:butt;stroke-linejoin:round;stroke-miterlimit:10;stroke-dasharray:none;stroke-dashoffset:0;stroke-opacity:0.25098039;paint-order:normal" />
    <rect
       style="opacity:1;vector-effect:none;fill:#ff0000;fill-opacity:0.24102568;fill-rule:evenodd;stroke:none;stroke-width:0.45714849;stroke-linecap:butt;stroke-linejoin:round;stroke-miterlimit:10;stroke-dasharray:none;stroke-dashoffset:0;stroke-opacity:0.25098039;paint-order:normal"
       id="rect2058"
       width="7.8235297"
       height="7.8246284"
       x="11.98764"
       y="63.493031" />
    <rect
       y="73.663849"
       x="11.98764"
       height="7.8246284"
       width="7.8235297"
       id="rect2060"
       style="opacity:1;vector-effect:none;fill:#ff0000;fill-opacity:0.24102568;fill-rule:evenodd;stroke:none;stroke-width:0.45714849;stroke-linecap:butt;stroke-linejoin:round;stroke-miterlimit:10;stroke-dasharray:none;stroke-dashoffset:0;stroke-opacity:0.25098039;paint-order:normal" />
    <rect
       style="opacity:1;vector-effect:none;fill:#ff0000;fill-opacity:0.24102568;fill-rule:evenodd;stroke:none;stroke-width:0.45714849;stroke-linecap:butt;stroke-linejoin:round;stroke-miterlimit:10;stroke-dasharray:none;stroke-dashoffset:0;stroke-opacity:0.25098039;paint-order:normal"
       id="rect2062"
       width="7.8235297"
       height="7.8246284"
       x="11.98764"
       y="83.835762" />
    <rect
       style="opacity:1;vector-effect:none;fill:#0000ff;fill-opacity:0.24102568;fill-rule:evenodd;stroke:none;stroke-width:0.37543976;stroke-linecap:butt;stroke-linejoin:round;stroke-miterlimit:10;stroke-dasharray:none;stroke-dashoffset:0;stroke-opacity:0.25098039;paint-order:normal"
       id="rect2064"
       width="6.4261708"
       height="6.4251032"
       x="22.858219"
       y="23.506224" />
    <rect
       y="33.677055"
       x="22.858219"
       height="6.4251032"
       width="6.4261708"
       id="rect2066"
       style="opacity:1;vector-effect:none;fill:#0000ff;fill-opacity:0.24102568;fill-rule:evenodd;stroke:none;stroke-width:0.37543976;stroke-linecap:butt;stroke-linejoin:round;stroke-miterlimit:10;stroke-dasharray:none;stroke-dashoffset:0;stroke-opacity:0.25098039;paint-order:normal" />
    <rect
       style="opacity:1;vector-effect:none;fill:#0000ff;fill-opacity:0.24102568;fill-rule:evenodd;stroke:none;stroke-width:0.37543976;stroke-linecap:butt;stroke-linejoin:round;stroke-miterlimit:10;stroke-dasharray:none;stroke-dashoffset:0;stroke-opacity:0.25098039;paint-order:normal"
       id="rect2068"
       width="6.4261708"
       height="6.4251032"
       x="22.858219"
       y="43.848965" />
    <rect
       y="54.020874"
       x="22.858219"
       height="6.4251032"
       width="6.4261708"
       id="rect2070"
       style="opacity:1;vector-effect:none;fill:#0000ff;fill-opacity:0.24102568;fill-rule:evenodd;stroke:none;stroke-width:0.37543976;stroke-linecap:butt;stroke-linejoin:round;stroke-miterlimit:10;stroke-dasharray:none;stroke-dashoffset:0;stroke-opacity:0.25098039;paint-order:normal" />
    <rect
       style="opacity:1;vector-effect:none;fill:#0000ff;fill-opacity:0.24102568;fill-rule:evenodd;stroke:none;stroke-width:0.37543976;stroke-linecap:butt;stroke-linejoin:round;stroke-miterlimit:10;stroke-dasharray:none;stroke-dashoffset:0;stroke-opacity:0.25098039;paint-order:normal"
       id="rect2072"
       width="6.4261708"
       height="6.4251032"
       x="22.858219"
       y="64.191704" />
    <rect
       y="74.363617"
       x="22.858219"
       height="6.4251032"
       width="6.4261708"
       id="rect2074"
       style="opacity:1;vector-effect:none;fill:#0000ff;fill-opacity:0.24102568;fill-rule:evenodd;stroke:none;stroke-width:0.37543976;stroke-linecap:butt;stroke-linejoin:round;stroke-miterlimit:10;stroke-dasharray:none;stroke-dashoffset:0;stroke-opacity:0.25098039;paint-order:normal" />
    <rect
       style="opacity:1;vector-effect:none;fill:#0000ff;fill-opacity:0.24102568;fill-rule:evenodd;stroke:none;stroke-width:0.37543976;stroke-linecap:butt;stroke-linejoin:round;stroke-miterlimit:10;stroke-dasharray:none;stroke-dashoffset:0;stroke-opacity:0.25098039;paint-order:normal"
       id="rect2076"
       width="6.4261708"
       height="6.4251032"
       x="22.858219"
       y="84.535515" />
    <rect
       y="23.51054"
       x="28.496229"
       height="0.78278655"
       width="0.78277081"
       id="rect2078"
       style="opacity:1;vector-effect:none;fill:#ff00ff;fill-opacity:0.24102568;fill-rule:evenodd;stroke:none;stroke-width:0.04573651;stroke-linecap:butt;stroke-linejoin:round;stroke-miterlimit:10;stroke-dasharray:none;stroke-dashoffset:0;stroke-opacity:0.25098039;paint-order:normal" />
    <rect
       style="opacity:1;vector-effect:none;fill:#ff00ff;fill-opacity:0.24102568;fill-rule:evenodd;stroke:none;stroke-width:0.04573651;stroke-linecap:butt;stroke-linejoin:round;stroke-miterlimit:10;stroke-dasharray:none;stroke-dashoffset:0;stroke-opacity:0.25098039;paint-order:normal"
       id="rect2080"
       width="0.78277081"
       height="0.78278655"
       x="28.496229"
       y="33.682449" />
    <rect
       y="43.853279"
       x="28.496229"
       height="0.78278655"
       width="0.78277081"
       id="rect2082"
       style="opacity:1;vector-effect:none;fill:#ff00ff;fill-opacity:0.24102568;fill-rule:evenodd;stroke:none;stroke-width:0.04573651;stroke-linecap:butt;stroke-linejoin:round;stroke-miterlimit:10;stroke-dasharray:none;stroke-dashoffset:0;stroke-opacity:0.25098039;paint-order:normal" />
    <rect
       style="opacity:1;vector-effect:none;fill:#ff00ff;fill-opacity:0.24102568;fill-rule:evenodd;stroke:none;stroke-width:0.04573651;stroke-linecap:butt;stroke-linejoin:round;stroke-miterlimit:10;stroke-dasharray:none;stroke-dashoffset:0;stroke-opacity:0.25098039;paint-order:normal"
       id="rect2084"
       width="0.78277081"
       height="0.78278655"
       x="28.496229"
       y="54.025192" />
    <rect
       y="64.197098"
       x="28.496229"
       height="0.78278655"
       width="0.78277081"
       id="rect2086"
       style="opacity:1;vector-effect:none;fill:#ff00ff;fill-opacity:0.24102568;fill-rule:evenodd;stroke:none;stroke-width:0.04573651;stroke-linecap:butt;stroke-linejoin:round;stroke-miterlimit:10;stroke-dasharray:none;stroke-dashoffset:0;stroke-opacity:0.25098039;paint-order:normal" />
    <rect
       style="opacity:1;vector-effect:none;fill:#ff00ff;fill-opacity:0.24102568;fill-rule:evenodd;stroke:none;stroke-width:0.04573651;stroke-linecap:butt;stroke-linejoin:round;stroke-miterlimit:10;stroke-dasharray:none;stroke-dashoffset:0;stroke-opacity:0.25098039;paint-order:normal"
       id="rect2088"
       width="0.78277081"
       height="0.78278655"
       x="28.496229"
       y="74.367928" />
    <rect
       y="84.539833"
       x="28.496229"
       height="0.78278655"
       width="0.78277081"
       id="rect2090"
       style="opacity:1;vector-effect:none;fill:#ff00ff;fill-opacity:0.24102568;fill-rule:evenodd;stroke:none;stroke-width:0.04573651;stroke-linecap:butt;stroke-linejoin:round;stroke-miterlimit:10;stroke-dasharray:none;stroke-dashoffset:0;stroke-opacity:0.25098039;paint-order:normal" />
    <rect
       style="opacity:1;vector-effect:none;fill:#ff00ff;fill-opacity:0.24102568;fill-rule:evenodd;stroke:none;stroke-width:0.04573651;stroke-linecap:butt;stroke-linejoin:round;stroke-miterlimit:10;stroke-dasharray:none;stroke-dashoffset:0;stroke-opacity:0.25098039;paint-order:normal"
       id="rect2092"
       width="0.78277081"
       height="0.78278655"
       x="28.496229"
       y="84.539833" />
  </g>
</svg>
