<?xml version="1.0" encoding="UTF-8" standalone="no"?>
<!-- Created with Inkscape (http://www.inkscape.org/) -->

<svg
   xmlns:dc="http://purl.org/dc/elements/1.1/"
   xmlns:cc="http://creativecommons.org/ns#"
   xmlns:rdf="http://www.w3.org/1999/02/22-rdf-syntax-ns#"
   xmlns:svg="http://www.w3.org/2000/svg"
   xmlns="http://www.w3.org/2000/svg"
   xmlns:sodipodi="http://sodipodi.sourceforge.net/DTD/sodipodi-0.dtd"
   xmlns:inkscape="http://www.inkscape.org/namespaces/inkscape"
   width="45"
   height="380"
   viewBox="0 0 11.906251 100.54167"
   version="1.1"
   id="svg1902"
   inkscape:version="0.92.4 5da689c313, 2019-01-14"
   sodipodi:docname="brokenclocks.svg">
  <defs
     id="defs1896" />
  <sodipodi:namedview
     id="base"
     pagecolor="#ffffff"
     bordercolor="#666666"
     borderopacity="1.0"
     inkscape:pageopacity="0.0"
     inkscape:pageshadow="2"
     inkscape:zoom="4"
     inkscape:cx="58.734469"
     inkscape:cy="52.546546"
     inkscape:document-units="mm"
     inkscape:current-layer="layer1"
     showgrid="false"
     units="px"
     height="100.54166mm"
     inkscape:window-width="1288"
     inkscape:window-height="654"
     inkscape:window-x="39"
     inkscape:window-y="57"
     inkscape:window-maximized="0"
     showguides="false" />
  <metadata
     id="metadata1899">
    <rdf:RDF>
      <cc:Work
         rdf:about="">
        <dc:format>image/svg+xml</dc:format>
        <dc:type
           rdf:resource="http://purl.org/dc/dcmitype/StillImage" />
        <dc:title />
      </cc:Work>
    </rdf:RDF>
  </metadata>
  <g
     inkscape:label="Layer 1"
     inkscape:groupmode="layer"
     id="layer1"
     transform="translate(0,-196.45832)">
    <path
       inkscape:connector-curvature="0"
       style="fill:#9ed3a6;fill-opacity:1;fill-rule:nonzero;stroke:none;stroke-width:0.27773118;opacity:0.777"
       d="M 0,196.45832 H 11.90625 V 296.99999 H 0 Z m 0,0"
       id="path34071" />
    <path
       sodipodi:type="star"
       style="fill:#000000;fill-opacity:1;stroke-width:0.2203427"
       id="path3769"
       sodipodi:sides="3"
       sodipodi:cx="5.953125"
       sodipodi:cy="205.51408"
       sodipodi:r1="3.0551453"
       sodipodi:r2="1.5275725"
       sodipodi:arg1="0.52359878"
       sodipodi:arg2="1.5707963"
       inkscape:flatsided="true"
       inkscape:rounded="0"
       inkscape:randomized="0"
       d="m 8.5989584,207.04166 -5.2916668,0 2.6458334,-4.58272 z"
       inkscape:transform-center-y="-0.76379232" />
    <flowRoot
       xml:space="preserve"
       id="flowRoot1353"
       style="font-style:normal;font-variant:normal;font-weight:normal;font-stretch:normal;font-size:40px;line-height:1.25;font-family:'xos4 Terminus';-inkscape-font-specification:'xos4 Terminus';letter-spacing:0px;word-spacing:0px;fill:#000000;fill-opacity:1;stroke:none"
       transform="matrix(0.26458333,0,0,0.26458333,0,196.45832)"><flowRegion
         id="flowRegion1355"><rect
           id="rect1357"
           width="133.0452"
           height="64.005524"
           x="-94.045204"
           y="70.994339" /></flowRegion><flowPara
         id="flowPara1359">terminust</flowPara></flowRoot>    <rect
       style="opacity:0.95;fill:#000000;fill-opacity:1;stroke-width:0.27224147"
       id="rect1519"
       width="1.3229166"
       height="0.13229166"
       x="208.69107"
       y="201.98859"
       transform="rotate(45)" />
    <rect
       style="opacity:0.95;fill:#000000;fill-opacity:1;stroke-width:0.27224147"
       id="rect1519-7"
       width="1.3229166"
       height="0.13229166"
       x="206.18863"
       y="199.52444"
       transform="rotate(45)" />
    <path
       inkscape:connector-curvature="0"
       id="path69666-2"
       d="m 2.165345,222.16295 c 0,-0.35582 0.29112,-0.64693 0.64695,-0.64693 h 6.28169 c 0.3558202,0 0.6469201,0.29111 0.6469201,0.64693 v 6.28169 c 0,0.35582 -0.2910999,0.64693 -0.6469201,0.64693 h -6.28169 c -0.35583,0 -0.64695,-0.29111 -0.64695,-0.64693 z m 0,0"
       style="fill:#000000;fill-opacity:1;fill-rule:nonzero;stroke:none;stroke-width:0.27602381" />
    <path
       inkscape:connector-curvature="0"
       id="path69674-0"
       d="m 2.165345,240.389 c 0,-0.35582 0.29112,-0.64693 0.64695,-0.64693 h 6.28169 c 0.3558202,0 0.6469201,0.29111 0.6469201,0.64693 v 6.28278 c 0,0.3558 -0.2910999,0.64693 -0.6469201,0.64693 h -6.28169 c -0.35583,0 -0.64695,-0.29113 -0.64695,-0.64693 z m 0,0"
       style="fill:#000000;fill-opacity:1;fill-rule:nonzero;stroke:none;stroke-width:0.27602381" />
    <path
       inkscape:connector-curvature="0"
       id="path69682-3"
       d="m 2.1653582,276.8422 c 0,-0.35582 0.29112,-0.64693 0.64695,-0.64693 h 6.28169 c 0.3558202,0 0.6469201,0.29111 0.6469201,0.64693 v 6.2817 c 0,0.35581 -0.2910999,0.64693 -0.6469201,0.64693 h -6.28169 c -0.35583,0 -0.64695,-0.29112 -0.64695,-0.64693 z m 0,0"
       style="fill:#000000;fill-opacity:1;fill-rule:nonzero;stroke:none;stroke-width:0.27602381" />
    <path
       inkscape:connector-curvature="0"
       id="path69686-6"
       d="m 2.1653582,258.61508 c 0,-0.35582 0.29112,-0.64587 0.64695,-0.64587 h 6.28169 c 0.3558202,0 0.6469201,0.29005 0.6469201,0.64587 v 6.28278 c 0,0.35579 -0.2910999,0.6469 -0.6469201,0.6469 h -6.28169 c -0.35583,0 -0.64695,-0.29111 -0.64695,-0.6469 z m 0,0"
       style="fill:#000000;fill-opacity:1;fill-rule:nonzero;stroke:none;stroke-width:0.27602381" />
    <path
       inkscape:connector-curvature="0"
       id="path69692"
       d="m 5.9531383,273.58233 v 2.57973"
       style="fill:#000000;stroke:#000000;stroke-width:0.06548481;stroke-linecap:round;stroke-linejoin:round;stroke-miterlimit:10;stroke-opacity:1;fill-opacity:1" />
    <path
       inkscape:connector-curvature="0"
       id="path69692-5"
       d="M 5.9531382,255.35627 V 257.936"
       style="fill:#000000;stroke:#000000;stroke-width:0.06548481;stroke-linecap:round;stroke-linejoin:round;stroke-miterlimit:10;stroke-opacity:1;fill-opacity:1" />
    <path
       inkscape:connector-curvature="0"
       id="path69692-2"
       d="m 5.953125,237.12913 v 2.57973"
       style="fill:#000000;stroke:#000000;stroke-width:0.06548481;stroke-linecap:round;stroke-linejoin:round;stroke-miterlimit:10;stroke-opacity:1;fill-opacity:1" />
    <path
       inkscape:connector-curvature="0"
       id="path69692-8"
       d="m 5.9531251,218.90308 v 2.57973"
       style="fill:#000000;stroke:#000000;stroke-width:0.06548481;stroke-linecap:round;stroke-linejoin:round;stroke-miterlimit:10;stroke-opacity:1;fill-opacity:1" />
    <g
       aria-label="Broken Clocks"
       style="font-style:normal;font-variant:normal;font-weight:500;font-stretch:normal;font-size:2.82222223px;line-height:1.25;font-family:'Fira Code';-inkscape-font-specification:'Fira Code, Medium';font-variant-ligatures:normal;font-variant-caps:normal;font-variant-numeric:normal;font-feature-settings:normal;text-align:start;letter-spacing:0px;word-spacing:0px;writing-mode:lr-tb;text-anchor:start;opacity:1;fill:#000000;fill-opacity:1;stroke:none;stroke-width:0.26458332"
       id="text2578">
      <path
         d="m 2.4817253,287.57305 q 0,0.30198 -0.2144889,0.4318 -0.2144889,0.12982 -0.5446889,0.12982 H 1.1524586 v -1.94733 h 0.5334 q 0.3104445,0 0.5108223,0.11571 0.2003777,0.11289 0.2003777,0.37818 0,0.16933 -0.1044222,0.2794 -0.1016,0.10724 -0.2568222,0.14111 0.1919111,0.0339 0.3189111,0.14393 0.127,0.10725 0.127,0.32738 z m -0.4176889,-0.86642 q 0,-0.14393 -0.090311,-0.20884 -0.087489,-0.0649 -0.2596444,-0.0649 H 1.4798364 v 0.56163 h 0.254 q 0.1665111,0 0.2483556,-0.0677 0.081844,-0.0706 0.081844,-0.22013 z m 0.0762,0.86642 q 0,-0.18344 -0.1016,-0.25682 -0.1016,-0.0762 -0.2822222,-0.0762 H 1.4798364 v 0.64064 h 0.2652889 q 0.3951111,0 0.3951111,-0.30762 z"
         style=""
         id="path2584" />
      <path
         d="m 3.9227785,286.60785 q 0.1157111,0 0.2257778,0.0367 l -0.053622,0.55033 H 3.8691563 v -0.3048 q -0.1552223,0.003 -0.2709334,0.12418 -0.1157111,0.12136 -0.1806222,0.34149 v 0.55316 h 0.2991556 v 0.22577 H 2.8813785 v -0.22577 h 0.2201333 v -1.03858 H 2.8813785 v -0.22578 h 0.4600222 l 0.056444,0.34431 q 0.087489,-0.19191 0.2116667,-0.28504 0.127,-0.096 0.3132667,-0.096 z"
         style=""
         id="path2586" />
      <path
         d="m 5.1578094,286.60503 q 0.3217333,0 0.4967111,0.21167 0.1749778,0.20884 0.1749778,0.57009 0,0.36124 -0.1778,0.57291 -0.1778,0.21166 -0.4967111,0.21166 -0.3217333,0 -0.4995333,-0.20602 -0.1749778,-0.20884 -0.1749778,-0.57573 0,-0.3556 0.1778,-0.57009 0.1806222,-0.21449 0.4995333,-0.21449 z m 0,0.24553 q -0.1721555,0 -0.2596444,0.13265 -0.084667,0.13264 -0.084667,0.4064 0,0.27658 0.084667,0.40922 0.084667,0.12982 0.2568222,0.12982 0.1721555,0 0.2568222,-0.13264 0.084667,-0.13265 0.084667,-0.40922 0,-0.27376 -0.084667,-0.40358 -0.084667,-0.13265 -0.254,-0.13265 z"
         style=""
         id="path2588" />
      <path
         d="m 6.5762846,286.00954 v 2.12513 H 6.2601957 v -2.08844 z m 0.9877777,0.635 -0.6011333,0.66605 0.6632222,0.82408 H 7.2395068 l -0.6406445,-0.81562 0.5983112,-0.67451 z"
         style=""
         id="path2590" />
      <path
         d="m 8.2064268,287.49121 q 0.014111,0.21731 0.1241778,0.32738 0.1128889,0.10724 0.2822222,0.10724 0.1044223,0 0.1975556,-0.031 0.095956,-0.0339 0.1947333,-0.0988 l 0.1354667,0.19191 q -0.1044222,0.0875 -0.2455333,0.13547 -0.1411111,0.048 -0.2963334,0.048 -0.3414889,0 -0.5305777,-0.21166 -0.1890889,-0.21449 -0.1890889,-0.57009 0,-0.22296 0.081844,-0.40076 0.081844,-0.18062 0.2370667,-0.28222 0.1552222,-0.1016 0.3612444,-0.1016 0.2963334,0 0.4684889,0.20038 0.1749778,0.19755 0.1749778,0.54469 0,0.0847 -0.00847,0.14111 z m 0.3556,-0.65194 q -0.1524,0 -0.2483555,0.11007 -0.095956,0.11007 -0.1100667,0.32738 h 0.6914445 q -0.00564,-0.21167 -0.090311,-0.32456 -0.084667,-0.11289 -0.2427112,-0.11289 z"
         style=""
         id="path2592" />
      <path
         d="m 9.6361914,286.64454 h 0.2737555 l 0.022578,0.19473 q 0.093133,-0.11288 0.2173113,-0.17215 0.127,-0.0621 0.265289,-0.0621 0.206022,0 0.310444,0.11571 0.104422,0.11571 0.104422,0.32738 v 1.08655 h -0.316089 v -0.92851 q 0,-0.13829 -0.01693,-0.21166 -0.01411,-0.0762 -0.05927,-0.11007 -0.04515,-0.0367 -0.135466,-0.0367 -0.1016,0 -0.194734,0.0621 -0.09031,0.0621 -0.1552218,0.15522 v 1.06962 H 9.6361914 Z"
         style=""
         id="path2594" />
      <path
         d="m 1.9342142,289.67561 q 0.1919111,0 0.3273778,0.048 0.1354666,0.048 0.2596444,0.14957 l -0.1693333,0.2032 q -0.1778,-0.14393 -0.4035778,-0.14393 -0.2370667,0 -0.3866444,0.18344 -0.1495778,0.18063 -0.1495778,0.57009 0,0.38383 0.1467555,0.56727 0.1467556,0.18062 0.3922889,0.18062 0.1411111,0 0.2398889,-0.0423 0.1016,-0.0452 0.2003778,-0.12418 l 0.1580444,0.20038 q -0.2370666,0.23142 -0.6096,0.23142 -0.2511777,0 -0.4487333,-0.11571 -0.1975555,-0.11853 -0.3104444,-0.34713 -0.1100667,-0.2286 -0.1100667,-0.55034 0,-0.31609 0.1128889,-0.54469 0.1157111,-0.2286 0.3132667,-0.34713 0.1975555,-0.11853 0.4374444,-0.11853 z"
         style=""
         id="path2596" />
      <path
         d="m 3.5220229,291.25605 q 0,0.18909 0.2257778,0.18909 0.1128889,0 0.2370667,-0.0508 l 0.079022,0.22013 q -0.1552222,0.0847 -0.3838222,0.0847 -0.2229556,0 -0.3499556,-0.12418 -0.1241778,-0.127 -0.1241778,-0.34713 v -1.4224 H 2.7572007 v -0.23142 h 0.7648222 z"
         style=""
         id="path2598" />
      <path
         d="m 5.1578094,290.13281 q 0.3217333,0 0.4967111,0.21166 0.1749778,0.20885 0.1749778,0.57009 0,0.36125 -0.1778,0.57291 -0.1778,0.21167 -0.4967111,0.21167 -0.3217333,0 -0.4995333,-0.20602 -0.1749778,-0.20885 -0.1749778,-0.57573 0,-0.3556 0.1778,-0.57009 0.1806222,-0.21449 0.4995333,-0.21449 z m 0,0.24553 q -0.1721555,0 -0.2596444,0.13265 -0.084667,0.13264 -0.084667,0.4064 0,0.27657 0.084667,0.40922 0.084667,0.12982 0.2568222,0.12982 0.1721555,0 0.2568222,-0.13264 0.084667,-0.13265 0.084667,-0.40923 0,-0.27375 -0.084667,-0.40357 -0.084667,-0.13265 -0.254,-0.13265 z"
         style=""
         id="path2600" />
      <path
         d="m 6.9713957,291.4395 q 0.1778,0 0.3668889,-0.127 l 0.1439333,0.2032 q -0.098778,0.0847 -0.2370667,0.13546 -0.1382889,0.048 -0.2850444,0.048 -0.3414889,0 -0.5334,-0.20884 -0.1919111,-0.21167 -0.1919111,-0.56445 0,-0.2286 0.087489,-0.4064 0.087489,-0.18062 0.2511777,-0.28222 0.1665111,-0.10442 0.3922889,-0.10442 0.2963334,0 0.5164667,0.18062 l -0.1467556,0.19756 q -0.1806222,-0.12418 -0.3640666,-0.12418 -0.1862667,0 -0.2935111,0.13546 -0.1072445,0.13265 -0.1072445,0.40358 0,0.26529 0.1072445,0.38947 0.1072444,0.12418 0.2935111,0.12418 z"
         style=""
         id="path2602" />
      <path
         d="m 8.2685157,289.53732 v 2.12513 H 7.9524268 v -2.08844 z m 0.9877778,0.635 -0.6011333,0.66604 0.6632222,0.82409 H 8.931738 l -0.6406445,-0.81562 0.5983111,-0.67451 z"
         style=""
         id="path2604" />
      <path
         d="m 10.178058,291.45925 q 0.149578,0 0.234244,-0.0536 0.08749,-0.0536 0.08749,-0.14676 0,-0.0649 -0.0254,-0.10442 -0.0254,-0.0423 -0.1016,-0.0762 -0.0762,-0.0367 -0.2286,-0.0762 -0.245533,-0.0621 -0.3697108,-0.15804 -0.1213555,-0.0988 -0.1213555,-0.28222 0,-0.19474 0.1608667,-0.31045 0.1608666,-0.11853 0.4346226,-0.11853 0.3302,0 0.567266,0.17215 l -0.135466,0.20038 q -0.200378,-0.13264 -0.423334,-0.13264 -0.282222,0 -0.282222,0.16369 0,0.0564 0.031044,0.0931 0.03387,0.0367 0.112889,0.0705 0.07902,0.031 0.234245,0.0734 0.242711,0.0677 0.361244,0.16651 0.121356,0.0988 0.121356,0.29634 0,0.2286 -0.189089,0.34713 -0.189089,0.11571 -0.468489,0.11571 -0.3697111,0 -0.6124222,-0.20884 l 0.1665111,-0.19191 q 0.093133,0.0734 0.2060222,0.11853 0.1157109,0.0423 0.2398889,0.0423 z"
         style=""
         id="path2606" />
    </g>
  </g>
</svg>
